# File created by Blade
# Date/Time:  Tue Apr 07 20:53:11 2015
# Frame Rate: 120.000 fps
#------------------------------------------------------
:FULLY-SPECIFIED
:DEGREES
815
root 29.222247 34.323768 3.235229 -9.947787 -50.116589 -286.163849
Spine -22.246356 -27.596199 -7.518369
Head -2.146070 -14.438061 -8.701682
LeftShoulder -17.934115 33.947368 21.250161
LeftArm 82.834819 -57.613665 -89.135338
LeftForeArm 1.549257 -0.000000 18.454938
LeftHand 13.023284 -0.000000 18.273624
LeftHandThumb1 -26.253704 0.000000 33.147579
RightShoulder -10.152999 9.093513 -40.681943
RightArm 12.015561 25.413041 35.456146
RightForeArm -7.428893 0.000000 14.128913
RightHand 13.283774 -0.000000 -15.654444
RightHandThumb1 -24.326973 -0.000000 -32.862282
LeftUpLeg 7.814150 6.122247 20.395534
LeftLeg 18.162418 -0.000000 -0.000000
LeftFoot 35.669488 23.264228 -6.237764
LeftToeBase 18.003551 -0.000000 -0.000000
RightUpLeg -63.128708 -33.286330 -4.503581
RightLeg -1.694794 -0.000000 0.000000
RightFoot 0.895927 -25.354299 -4.126106
RightToeBase -2.767519 -0.000000 0.000000
816
root 29.227932 34.312208 3.240900 -10.493017 -50.362965 -287.014972
Spine -21.816253 -27.402676 -7.781643
Head -1.076529 -14.253780 -8.630979
LeftShoulder -17.897145 33.998069 21.476746
LeftArm 82.425524 -57.798656 -88.095125
LeftForeArm 1.284721 -0.000000 18.130237
LeftHand 13.076673 -0.000000 18.555550
LeftHandThumb1 -26.253704 0.000000 33.147579
RightShoulder -10.079162 9.307827 -40.732145
RightArm 12.467757 24.777658 35.668265
RightForeArm -7.547289 -0.000000 14.042232
RightHand 13.291161 -0.000000 -15.615299
RightHandThumb1 -24.326973 -0.000000 -32.862282
LeftUpLeg 7.766967 6.290798 19.755041
LeftLeg 17.786433 -0.000000 -0.000000
LeftFoot 35.608240 23.294960 -6.240046
LeftToeBase 16.722242 -0.000000 -0.000000
RightUpLeg -61.828914 -33.029313 -4.699868
RightLeg -1.438583 -0.000000 0.000000
RightFoot 0.933744 -25.339398 -4.349915
RightToeBase -2.912099 -0.000000 0.000000
817
root 29.235939 34.302402 3.248081 -11.005255 -50.556815 -287.881330
Spine -21.396980 -27.251065 -8.004098
Head -0.025707 -14.076267 -8.612742
LeftShoulder -17.817366 33.982769 21.742208
LeftArm 81.992774 -57.937309 -87.114459
LeftForeArm 1.130086 -0.000000 17.799595
LeftHand 13.232770 -0.000000 18.384795
LeftHandThumb1 -26.253704 0.000000 33.147579
RightShoulder -9.972172 9.458968 -40.770108
RightArm 12.885627 24.172404 35.783420
RightForeArm -7.675656 0.000000 13.973544
RightHand 13.338868 -0.000000 -15.358386
RightHandThumb1 -24.326973 -0.000000 -32.862282
LeftUpLeg 7.677893 6.489053 19.102875
LeftLeg 17.457676 -0.000000 -0.000000
LeftFoot 36.037637 22.811165 -5.493851
LeftToeBase 15.693195 -0.000000 -0.000000
RightUpLeg -60.502294 -32.795606 -4.990332
RightLeg -1.142432 -0.000000 0.000000
RightFoot 0.869023 -25.368656 -4.407346
RightToeBase -3.056383 -0.000000 0.000000
818
root 29.243843 34.290744 3.254564 -11.431644 -50.748197 -288.835461
Spine -21.000137 -27.121617 -8.129967
Head 1.018013 -13.895730 -8.637279
LeftShoulder -17.760242 33.900897 21.956670
LeftArm 81.472303 -58.016285 -86.027452
LeftForeArm 1.002090 -0.000000 17.522769
LeftHand 13.121643 -0.000000 18.586035
LeftHandThumb1 -26.253704 0.000000 33.147579
RightShoulder -9.888167 9.635464 -40.851595
RightArm 13.340883 23.582563 35.965027
RightForeArm -7.950463 -0.000000 13.889571
RightHand 13.378045 -0.000000 -15.298673
RightHandThumb1 -24.326973 -0.000000 -32.862282
LeftUpLeg 7.589628 6.628444 18.505185
LeftLeg 17.157741 -0.000000 -0.000000
LeftFoot 36.342924 22.410815 -5.188025
LeftToeBase 15.200956 -0.000000 -0.000000
RightUpLeg -59.101713 -32.499958 -5.369138
RightLeg -0.839318 -0.000000 0.000000
RightFoot 0.700839 -25.539292 -4.284400
RightToeBase -3.061710 -0.000000 0.000000
819
root 29.251485 34.277478 3.259555 -11.713903 -50.941705 -289.943782
Spine -20.620171 -27.005082 -8.117997
Head 2.038973 -13.688267 -8.688610
LeftShoulder -17.750916 33.926903 22.105469
LeftArm 81.492359 -58.037012 -85.487828
LeftForeArm 1.040121 -0.000000 17.234306
LeftHand 13.075500 -0.000000 18.614034
LeftHandThumb1 -26.253704 0.000000 33.147579
RightShoulder -9.766869 9.774667 -40.895064
RightArm 13.774240 23.010556 36.020494
RightForeArm -8.165681 -0.000000 13.800644
RightHand 13.416389 -0.000000 -15.015104
RightHandThumb1 -24.326973 -0.000000 -32.862282
LeftUpLeg 7.492189 6.721973 17.995533
LeftLeg 16.895176 -0.000000 -0.000000
LeftFoot 36.677322 21.905401 -4.827619
LeftToeBase 14.901021 -0.000000 -0.000000
RightUpLeg -57.700319 -32.200979 -5.653014
RightLeg -0.563906 -0.000000 0.000000
RightFoot 0.559820 -25.715226 -4.191422
RightToeBase -3.147072 -0.000000 0.000000
820
root 29.267913 34.262599 3.261287 -11.768997 -51.125047 -291.290489
Spine -20.267692 -26.956281 -7.870635
Head 2.979802 -13.414745 -8.793574
LeftShoulder -17.664781 33.816784 22.325614
LeftArm 81.312983 -58.075155 -84.963978
LeftForeArm 1.073822 -0.000000 17.031930
LeftHand 13.193871 -0.000000 18.182495
LeftHandThumb1 -26.253704 0.000000 33.147579
RightShoulder -9.620828 9.936073 -40.977060
RightArm 14.203343 22.470398 36.058531
RightForeArm -8.444921 -0.000000 13.709709
RightHand 13.428024 -0.000000 -14.847389
RightHandThumb1 -24.326973 -0.000000 -32.862282
LeftUpLeg 7.359551 6.971565 17.621408
LeftLeg 16.334014 -0.000000 -0.000000
LeftFoot 38.215020 21.136307 -3.483466
LeftToeBase 13.851186 -0.000000 -0.000000
RightUpLeg -56.303630 -31.868219 -5.850419
RightLeg -0.287683 -0.000000 0.000000
RightFoot 0.444148 -25.996663 -4.128182
RightToeBase -3.095463 -0.000000 0.000000
821
root 29.281306 34.245082 3.263995 -11.737843 -51.335722 -292.701424
Spine -19.965774 -26.895762 -7.539361
Head 3.915333 -13.159663 -8.912781
LeftShoulder -17.565596 33.653929 22.525306
LeftArm 81.206845 -58.106106 -84.519252
LeftForeArm 1.117376 -0.000000 16.822472
LeftHand 13.272287 -0.000000 17.621849
LeftHandThumb1 -26.253704 0.000000 33.147579
RightShoulder -9.457775 10.040945 -41.047795
RightArm 14.651695 22.051934 36.080695
RightForeArm -8.532044 -0.000000 13.646034
RightHand 13.438335 -0.000000 -14.570744
RightHandThumb1 -24.326973 -0.000000 -32.862282
LeftUpLeg 7.236035 7.143538 17.297789
LeftLeg 15.725253 -0.000000 -0.000000
LeftFoot 39.176582 21.350764 -3.046379
LeftToeBase 14.484694 -0.000000 -0.000000
RightUpLeg -54.951851 -31.503159 -5.976057
RightLeg -0.004303 -0.000000 0.000000
RightFoot 0.279125 -26.306769 -3.977521
RightToeBase -2.961900 -0.000000 0.000000
822
root 29.273819 34.241143 3.273324 -12.234208 -51.488767 -293.379219
Spine -19.762571 -26.874518 -7.772464
Head 4.986130 -12.815148 -8.833989
LeftShoulder -17.466556 33.592062 22.780720
LeftArm 81.140009 -58.123110 -84.061702
LeftForeArm 1.144035 -0.000000 16.656494
LeftHand 13.238553 0.000000 17.572756
LeftHandThumb1 -26.253704 0.000000 33.147579
RightShoulder -9.284766 10.018331 -40.959693
RightArm 15.200739 21.671006 36.203925
RightForeArm -8.829605 -0.000000 13.671040
RightHand 13.200324 -0.000000 -14.443773
RightHandThumb1 -24.326973 -0.000000 -32.862282
LeftUpLeg 7.026260 6.529054 16.366264
LeftLeg 16.102370 -0.000000 -0.000000
LeftFoot 37.030983 22.456546 -5.165648
LeftToeBase 16.396764 -0.000000 -0.000000
RightUpLeg -53.601535 -31.083642 -6.570765
RightLeg 0.210806 -0.000000 -0.000000
RightFoot 0.136669 -26.638388 -3.786679
RightToeBase -2.851582 -0.000000 0.000000
823
root 29.284401 34.228699 3.277164 -12.279723 -51.706630 -294.615900
Spine -19.516428 -26.850526 -7.537746
Head 5.908819 -12.526911 -8.858977
LeftShoulder -17.420488 33.534617 22.922807
LeftArm 81.379826 -58.112852 -83.871404
LeftForeArm 1.160321 -0.000000 16.410185
LeftHand 13.244986 -0.000000 17.319475
LeftHandThumb1 -26.253704 0.000000 33.147579
RightShoulder -9.110101 10.097928 -40.978243
RightArm 15.693875 21.232817 36.246352
RightForeArm -9.027002 -0.000000 13.581632
RightHand 13.123612 -0.000000 -14.210765
RightHandThumb1 -24.326973 -0.000000 -32.862282
LeftUpLeg 6.832746 6.451032 15.826247
LeftLeg 15.845506 -0.000000 -0.000000
LeftFoot 37.458908 22.376134 -4.667538
LeftToeBase 16.084603 -0.000000 -0.000000
RightUpLeg -52.385094 -30.723580 -6.666716
RightLeg 0.499136 -0.000000 -0.000000
RightFoot -0.051307 -26.883217 -3.564673
RightToeBase -2.752584 -0.000000 0.000000
824
root 29.285284 34.208414 3.273401 -12.087999 -51.893329 -296.116899
Spine -19.298840 -26.886492 -7.135820
Head 6.801080 -12.175178 -8.869580
LeftShoulder -17.382924 33.544405 23.042468
LeftArm 81.598479 -58.068755 -83.655776
LeftForeArm 1.175293 -0.000000 16.222832
LeftHand 13.471953 -0.000000 17.489761
LeftHandThumb1 -26.253704 0.000000 33.147579
RightShoulder -8.955307 10.248175 -41.025884
RightArm 16.078907 20.778647 36.303217
RightForeArm -9.337138 -0.000000 13.592413
RightHand 13.226681 -0.000000 -14.088727
RightHandThumb1 -24.326973 -0.000000 -32.862282
LeftUpLeg 6.609603 6.241668 15.449210
LeftLeg 15.579778 -0.000000 -0.000000
LeftFoot 37.178852 22.456290 -4.907220
LeftToeBase 17.301014 -0.000000 -0.000000
RightUpLeg -51.109770 -30.380318 -6.616310
RightLeg 0.696132 -0.000000 -0.000000
RightFoot -0.245207 -27.195253 -3.381906
RightToeBase -2.656665 -0.000000 0.000000
